HIERARCHY
ROOT Hips
{
	OFFSET	0	960.822	40.4592
	CHANNELS 6  Xposition Yposition Zposition Xrotation Yrotation Zrotation
	JOINT Spine
	{
		OFFSET	0	68.5747	34.724
		CHANNELS 3  Xrotation Yrotation Zrotation
		JOINT Spine1
		{
			OFFSET	0	117.377	-31.4402
			CHANNELS 3  Xrotation Yrotation Zrotation
			JOINT Spine2
			{
				OFFSET	0	88.9759	9.53687
				CHANNELS 3  Xrotation Yrotation Zrotation
				JOINT Spine3
				{
					OFFSET	0	106.478	6.49765
					CHANNELS 3  Xrotation Yrotation Zrotation
					JOINT Spine4
					{
						OFFSET	0	157.62	-11.9473
						CHANNELS 3  Xrotation Yrotation Zrotation
						JOINT Neck
						{
							OFFSET	0	75.247	-52.7148
							CHANNELS 3  Xrotation Yrotation Zrotation
							JOINT Head
							{
								OFFSET	0	90.3383	-27.0386
								CHANNELS 3  Xrotation Yrotation Zrotation
								End Site
								{
									OFFSET	0	188.432	-9.11767
								}
							}
						}
					}
					JOINT LeftShoulder
					{
						OFFSET	-45.274	191.576	-86.1463
						CHANNELS 3  Xrotation Yrotation Zrotation
						JOINT LeftArm
						{
							OFFSET	-121.82	-27.0386	34.6893
							CHANNELS 3  Xrotation Yrotation Zrotation
							JOINT LeftForeArm
							{
								OFFSET	-299.677	0	0
								CHANNELS 3  Xrotation Yrotation Zrotation
								JOINT LeftHand
								{
									OFFSET	-259.438	0	0
									CHANNELS 3  Xrotation Yrotation Zrotation
									JOINT LeftHandThumb1
									{
										OFFSET	-18.2409	-10.153	-26.4996
										CHANNELS 3  Xrotation Yrotation Zrotation
										JOINT LeftHandThumb2
										{
											OFFSET	-40.6108	-20.3054	0
											CHANNELS 3  Xrotation Yrotation Zrotation
											JOINT LeftHandThumb3
											{
												OFFSET	-35.5189	0	0
												CHANNELS 3  Xrotation Yrotation Zrotation
												End Site
												{
													OFFSET	-35.5189	0	0
												}
											}
										}
									}
									JOINT LeftHandIndex1
									{
										OFFSET	-99.4651	0	-18.5112
										CHANNELS 3  Xrotation Yrotation Zrotation
										JOINT LeftHandIndex2
										{
											OFFSET	-44.8257	0	0
											CHANNELS 3  Xrotation Yrotation Zrotation
											JOINT LeftHandIndex3
											{
												OFFSET	-29.8838	0	0
												CHANNELS 3  Xrotation Yrotation Zrotation
												End Site
												{
													OFFSET	-19.9225	0	0
												}
											}
										}
									}
									JOINT LeftHandMiddle1
									{
										OFFSET	-102.511	0	-1.11702
										CHANNELS 3  Xrotation Yrotation Zrotation
										JOINT LeftHandMiddle2
										{
											OFFSET	-46.6198	0	0
											CHANNELS 3  Xrotation Yrotation Zrotation
											JOINT LeftHandMiddle3
											{
												OFFSET	-34.7169	0	0
												CHANNELS 3  Xrotation Yrotation Zrotation
												End Site
												{
													OFFSET	-19.8382	0	0
												}
											}
										}
									}
									JOINT LeftHandRing1
									{
										OFFSET	-94.3886	0	16.2772
										CHANNELS 3  Xrotation Yrotation Zrotation
										JOINT LeftHandRing2
										{
											OFFSET	-44.4482	0	0
											CHANNELS 3  Xrotation Yrotation Zrotation
											JOINT LeftHandRing3
											{
												OFFSET	-34.5708	0	0
												CHANNELS 3  Xrotation Yrotation Zrotation
												End Site
												{
													OFFSET	-19.7548	0	0
												}
											}
										}
									}
									JOINT LeftHandPinky1
									{
										OFFSET	-89.3121	0	33.6713
										CHANNELS 3  Xrotation Yrotation Zrotation
										JOINT LeftHandPinky2
										{
											OFFSET	-39.3423	0	0
											CHANNELS 3  Xrotation Yrotation Zrotation
											JOINT LeftHandPinky3
											{
												OFFSET	-19.6711	0	0
												CHANNELS 3  Xrotation Yrotation Zrotation
												End Site
												{
													OFFSET	-19.6711	0	0
												}
											}
										}
									}
									End Site
									{
										OFFSET	-82.4403	0	-0.000375748
									}
								}
							}
						}
					}
					JOINT RightShoulder
					{
						OFFSET	45.274	191.576	-86.1463
						CHANNELS 3  Xrotation Yrotation Zrotation
						JOINT RightArm
						{
							OFFSET	121.82	-27.0386	34.6893
							CHANNELS 3  Xrotation Yrotation Zrotation
							JOINT RightForeArm
							{
								OFFSET	299.677	0	0
								CHANNELS 3  Xrotation Yrotation Zrotation
								JOINT RightHand
								{
									OFFSET	259.438	0	0
									CHANNELS 3  Xrotation Yrotation Zrotation
									JOINT RightHandThumb1
									{
										OFFSET	18.2409	-10.153	-26.4996
										CHANNELS 3  Xrotation Yrotation Zrotation
										JOINT RightHandThumb2
										{
											OFFSET	40.6108	-20.3054	0
											CHANNELS 3  Xrotation Yrotation Zrotation
											JOINT RightHandThumb3
											{
												OFFSET	35.5189	0	0
												CHANNELS 3  Xrotation Yrotation Zrotation
												End Site
												{
													OFFSET	35.5189	0	0
												}
											}
										}
									}
									JOINT RightHandIndex1
									{
										OFFSET	99.4651	0	-18.5112
										CHANNELS 3  Xrotation Yrotation Zrotation
										JOINT RightHandIndex2
										{
											OFFSET	44.8257	0	0
											CHANNELS 3  Xrotation Yrotation Zrotation
											JOINT RightHandIndex3
											{
												OFFSET	29.8838	0	0
												CHANNELS 3  Xrotation Yrotation Zrotation
												End Site
												{
													OFFSET	19.9225	0	0
												}
											}
										}
									}
									JOINT RightHandMiddle1
									{
										OFFSET	102.511	0	-1.11702
										CHANNELS 3  Xrotation Yrotation Zrotation
										JOINT RightHandMiddle2
										{
											OFFSET	46.6198	0	0
											CHANNELS 3  Xrotation Yrotation Zrotation
											JOINT RightHandMiddle3
											{
												OFFSET	34.7169	0	0
												CHANNELS 3  Xrotation Yrotation Zrotation
												End Site
												{
													OFFSET	19.8382	0	0
												}
											}
										}
									}
									JOINT RightHandRing1
									{
										OFFSET	94.3886	0	16.2772
										CHANNELS 3  Xrotation Yrotation Zrotation
										JOINT RightHandRing2
										{
											OFFSET	44.4482	0	0
											CHANNELS 3  Xrotation Yrotation Zrotation
											JOINT RightHandRing3
											{
												OFFSET	34.5708	0	0
												CHANNELS 3  Xrotation Yrotation Zrotation
												End Site
												{
													OFFSET	19.7548	0	0
												}
											}
										}
									}
									JOINT RightHandPinky1
									{
										OFFSET	89.3121	0	33.6713
										CHANNELS 3  Xrotation Yrotation Zrotation
										JOINT RightHandPinky2
										{
											OFFSET	39.3423	0	0
											CHANNELS 3  Xrotation Yrotation Zrotation
											JOINT RightHandPinky3
											{
												OFFSET	19.6711	0	0
												CHANNELS 3  Xrotation Yrotation Zrotation
												End Site
												{
													OFFSET	19.6711	0	0
												}
											}
										}
									}
									End Site
									{
										OFFSET	82.4403	0	-0.000375748
									}
								}
							}
						}
					}
				}
			}
		}
	}
	JOINT LeftUpLeg
	{
		OFFSET	-95.5888	-34.2873	-17.362
		CHANNELS 3  Xrotation Yrotation Zrotation
		JOINT LeftLeg
		{
			OFFSET	0	-432.733	0
			CHANNELS 3  Xrotation Yrotation Zrotation
			JOINT LeftFoot
			{
				OFFSET	0	-422.4	0
				CHANNELS 3  Xrotation Yrotation Zrotation
				JOINT LeftToeBase
				{
					OFFSET	2.76978	-39.1501	-139.32
					CHANNELS 3  Xrotation Yrotation Zrotation
					End Site
					{
						OFFSET	1.10928	-13.3141	-83.0459
					}
				}
			}
		}
	}
	JOINT RightUpLeg
	{
		OFFSET	95.5888	-34.2873	-17.362
		CHANNELS 3  Xrotation Yrotation Zrotation
		JOINT RightLeg
		{
			OFFSET	0	-432.733	0
			CHANNELS 3  Xrotation Yrotation Zrotation
			JOINT RightFoot
			{
				OFFSET	0	-422.4	0
				CHANNELS 3  Xrotation Yrotation Zrotation
				JOINT RightToeBase
				{
					OFFSET	-2.76978	-39.1501	-139.32
					CHANNELS 3  Xrotation Yrotation Zrotation
					End Site
					{
						OFFSET	-1.10928	-13.3141	-83.0459
					}
				}
			}
		}
	}
}
MOTION
Frames: 10
Frame Time: 0.038462
 975.924 548.23 521.55 167.091 -14.8091 178.025 179.951 179.921 179.886 179.658 179.842 179.848 0.558997 0.474308 -0.189967 1.91708 0.0790515 -0.151969 175.022 179.997 179.962 165.939 176.711 177.303 175.734 172.085 -179.808 179.668 -151.55 179.28 32.6622 -6.0454 62.9688 90.688 -42.6252 91.2377 -0 24.8733 -40.0787 1.1937 -26.5962 -3.11849 -0 3.086 0 -0 -10.3733 -0 -0 -6.41307 5.33216 -0 0 55.4199 -0 0 52.5313 -0 -5.24418 10.5682 -0 0 51.5934 -0 0 82.815 -0 0.0951297 15.5987 -0 0 40.4746 -0 0 84.6718 -0 5.89281 24.2026 -0 0 44.4638 -0 0 60.2312 179.897 147.288 -179.777 26.7803 5.38441 -67.8971 97.9211 68.9549 -98.693 -0 4.18978 41.8986 36.08 9.78536 -10.7359 -0 6.54359 0 -0 -24.1866 -0 -0 8.2685 -15.9039 -0 0 -35.859 -0 0 -0.244213 -0 5.07824 -5.66601 -0 0 -37.1043 -0 0 -0.45446 -0 -1.4971 -8.68801 -0 0 -26.2774 -0 0 -52.6591 -0 -6.49613 -9.80169 -0 0 -40.0574 -0 0 -38.0374 68.3151 -17.5879 -17.9688 99.8806 172.178 -154.643 171.367 -179.255 166.768 0.175273 0 0 71.0076 25.9696 4.15847 107.363 177.977 156.464 169.722 -179.683 167.287 0.14253 0 0
 978.126 545.977 519.448 167.127 -14.9643 178.15 179.941 179.917 179.814 179.582 179.835 179.752 0.489386 0.495796 -0.310571 1.75934 0.0826331 -0.248448 175.278 179.995 179.938 166.692 177.126 177.006 175.971 172.639 -179.97 179.129 -149.478 178.112 30.7305 -7.77924 63.2688 91.6297 -44.6293 92.4896 -0 24.9196 -40.7664 0.0785507 -16.0974 3.60429 -0 8.70745 0 -0 7.79943 0 -0 -8.70993 2.88314 -0 0 58.5321 -0 0 66.6645 -0 -7.19023 10.4171 -0 0 50.8811 -0 0 86.8272 -0 -0.212863 14.2392 -0 0 43.6067 -0 0 84.4587 -0 7.03457 22.1123 -0 0 48.4026 -0 0 72.1866 178.658 145.173 -177.11 24.0925 7.6054 -68.5829 100.454 70.4698 -101.261 -0 5.74851 41.5281 35.7491 7.48352 -13.8036 -0 5.95362 0 -0 -16.0814 -0 -0 8.5052 -14.3079 -0 0 -33.9964 -0 0 -2.21717 -0 5.34785 -2.01715 -0 0 -29.0854 -0 0 9.367 -0 -2.51225 -3.87239 -0 0 -24.301 -0 0 -48.7907 -0 -8.84172 2.89961 -0 0 -44.9249 -0 0 -44.1972 68.9549 -17.9468 -17.4372 99.6978 172.32 -154.683 170.711 -179.086 166.642 0.180477 0 0 70.943 25.4596 4.90257 107.495 177.678 156.451 169.585 -179.963 167.302 0.139059 0 0
 979.556 544.525 517.308 167.149 -15.2694 178.258 179.928 179.948 179.75 179.493 179.895 179.667 0.423164 0.313842 -0.41594 1.62551 0.0523074 -0.332747 175.459 179.993 179.917 167.239 177.383 176.869 176.141 172.997 179.94 178.191 -147.973 176.082 27.7814 -9.34664 63.0068 92.3472 -46.6591 93.3496 -0 24.5443 -41.4122 174.643 177.231 -171.183 -0 12.4806 0 -0 22.7916 0 -0 -10.3955 2.27525 -0 0 42.6451 -0 0 60.1056 -0 -8.89029 7.44423 -0 0 46.6586 -0 0 82.9133 -0 -0.26925 9.88218 -0 0 44.3895 -0 0 80.2935 -0 7.96806 20.4224 -0 0 44.3677 -0 0 73.8207 177.483 143.814 -174.591 20.6508 9.98586 -68.7476 103.625 71.906 -104.429 -0 6.94247 40.9497 35.2734 5.77093 -16.1986 -0 3.90983 0 -0 -4.90961 -0 -0 8.8242 -10.5955 -0 0 -24.4129 -0 0 0.091487 -0 5.28933 1.83666 -0 0 -22.7097 -0 0 14.2141 -0 -3.85836 1.93739 -0 0 -23.1609 -0 0 -47.4209 -0 -11.2851 6.85637 -0 0 -42.0215 -0 0 -42.5174 69.5079 -18.3254 -16.7674 99.5955 172.356 -154.763 170.134 -178.876 166.59 0.179974 0 0 70.8248 24.922 5.63542 107.667 177.404 156.512 169.325 179.897 167.346 0.138222 0 0
 980.869 543.734 516.123 167.285 -15.6778 178.337 179.935 179.986 179.689 179.541 179.972 179.585 0.430723 0.0848911 -0.518508 1.61769 0.0141487 -0.414806 175.548 179.992 179.897 167.474 177.491 176.9 176.214 173.204 179.92 177.053 -146.981 173.62 24.3955 -10.6273 62.5275 92.8289 -48.1812 93.8739 -0 24.1657 -41.8787 167.019 160.814 -166.66 -0 13.9913 0 -0 31.5358 0 -0 -11.1566 2.30748 -0 0 19.3833 -0 0 42.6104 -0 -10.1477 4.68478 -0 0 43.9792 -0 0 79.6766 -0 -0.0427504 6.12643 -0 0 44.2795 -0 0 75.9759 -0 8.55649 19.2938 -0 0 36.3979 -0 0 69.2338 176.57 143.025 -172.642 17.1771 12.0102 -68.3978 105.889 73.0635 -106.612 -0 7.59646 40.3753 35.0494 5.43754 -17.7743 -0 0.577511 0 -0 4.46633 0 -0 9.16977 -12.6716 -0 0 -10.9273 -0 0 5.95906 -0 5.12995 -1.614 -0 0 -18.8805 -0 0 14.0028 -0 -5.36824 2.52736 -0 0 -18.7727 -0 0 -43.2813 -0 -13.3298 3.42002 -0 0 -33.618 -0 0 -34.5287 69.9713 -18.5939 -16.1101 99.5094 172.272 -154.805 170.081 -178.805 166.697 0.17554 0 0 70.7881 24.5247 6.34404 107.738 177.11 156.573 169.194 179.893 167.381 0.138993 0 0
 981.438 542.89 516.057 167.551 -16.2253 178.388 179.965 -179.987 179.629 179.757 -179.974 179.505 0.522504 -0.0786057 -0.619052 1.74322 -0.0131012 -0.495241 175.574 179.99 179.877 167.462 177.506 177.127 176.211 173.384 179.961 175.998 -146.163 171.341 21.2805 -11.7529 62.2527 93.3331 -49.0397 94.4476 -0 24.0332 -42.1441 161.286 154.007 -163.199 -0 13.4985 0 -0 36.0369 0 -0 -11.2126 2.88085 -0 0 4.26964 -0 0 30.9291 -0 -10.8554 6.1861 -0 0 45.0872 -0 0 81.5741 -0 0.36106 6.29052 -0 0 44.8198 -0 0 73.8159 -0 8.86239 18.6318 -0 0 28.0469 -0 0 62.7563 175.968 142.393 -171.362 14.3764 13.3436 -67.4218 104.57 73.9895 -105.098 -0 7.55788 39.8153 35.126 6.16547 -18.603 -0 -2.77704 -0 -0 9.65083 0 -0 9.281 -20.1354 -0 0 -2.19793 -0 0 7.90826 -0 5.08819 -11.3946 -0 0 -18.5558 -0 0 8.91639 -0 -6.87472 -2.83631 -0 0 -11.1189 -0 0 -34.7601 -0 -14.8877 -2.04478 -0 0 -23.5629 -0 0 -23.84 70.4479 -18.6886 -15.6284 99.3606 172.108 -154.732 170.407 -178.919 166.841 0.170642 0 0 70.889 24.2598 7.07713 107.631 176.79 156.568 169.282 179.969 167.39 0.140803 0 0
 979.652 542.329 516.987 167.776 -16.9705 178.475 179.999 -179.973 179.575 179.995 -179.946 179.434 0.636635 -0.161685 -0.707572 1.91868 -0.0269482 -0.566055 175.516 179.989 179.859 167.203 177.455 177.546 176.133 173.581 -179.944 175.177 -145.385 169.57 18.8725 -12.648 62.1387 93.8438 -49.3166 95.0549 -0 24.1472 -42.176 159.612 156.52 -161.711 -0 11.6808 0 -0 38.718 0 -0 -10.8644 6.76581 -0 0 2.21663 -0 0 32.0258 -0 -11.0519 14.6366 -0 0 47.9117 -0 0 86.3321 -0 0.828451 10.9641 -0 0 45.9334 -0 0 73.3864 -0 8.96219 19.0331 -0 0 21.1643 -0 0 57.1366 175.588 141.734 -170.565 12.4565 14.0775 -65.9638 99.2813 74.6168 -99.5702 -0 6.8729 39.2396 35.4508 7.68644 -18.9378 -0 -5.18814 -0 -0 11.0213 0 -0 9.02782 -27.0987 -0 0 -0.82292 -0 0 3.52762 -0 5.13198 -20.8144 -0 0 -22.0732 -0 0 -0.283789 -0 -8.29145 -10.0659 -0 0 -4.20019 -0 0 -25.8185 -0 -16.0548 -7.11226 -0 0 -14.0804 -0 0 -12.825 70.8272 -18.7101 -15.4052 99.2477 171.892 -154.602 170.667 -179.102 166.888 0.167214 0 0 70.9571 23.996 7.70125 107.419 176.551 156.506 169.509 -179.892 167.393 0.144752 0 0
 975.972 542.948 518.93 167.753 -17.7666 178.619 0.0189936 -0.0312596 -0.469226 0.134064 -0.0625176 -0.625635 0.725348 -0.187547 -0.782047 2.08714 -0.0312588 -0.625635 175.328 179.987 179.844 166.613 177.384 177.999 175.955 173.768 -179.832 174.607 -144.906 168.341 17.1293 -12.9102 61.7997 93.977 -49.2391 95.1867 -0 24.3415 -41.9963 161.343 165.488 -161.46 -0 9.22525 0 -0 40.7862 0 -0 -10.3793 13.045 -0 0 8.2046 -0 0 42.0541 -0 -10.9785 25.8138 -0 0 47.9813 -0 0 88.4344 -0 1.27097 17.0337 -0 0 45.8478 -0 0 72.554 -0 8.90419 22.1976 -0 0 16.6962 -0 0 54.001 175.312 141.277 -169.987 11.3371 14.4593 -64.2188 93.0956 74.8071 -93.1909 -0 5.8234 38.646 35.9335 9.6746 -19.0705 -0 -7.14418 -0 -0 10.0264 0 -0 8.46297 -29.5658 -0 0 -3.78154 -0 0 -4.31176 -0 5.22854 -25.0051 -0 0 -28.1118 -0 0 -11.4708 -0 -9.57659 -16.5501 -0 0 -1.66636 -0 0 -21.1602 -0 -16.8967 -13.4352 -0 0 -7.34024 -0 0 -4.33669 70.839 -18.7855 -15.3866 99.2762 171.713 -154.537 170.744 -179.177 166.857 0.165522 0 0 70.7564 23.6739 8.02112 107.206 176.427 156.457 169.811 -179.73 167.41 0.149063 0 0
 972.771 544.886 521.511 167.45 -18.3029 178.746 0.0273884 -0.030401 -0.508016 0.192887 -0.0608002 -0.677354 0.794312 -0.182393 -0.846697 2.25237 -0.0304001 -0.677354 175.029 179.985 179.831 165.737 177.328 178.299 175.691 173.878 -179.747 174.333 -144.979 167.741 15.9721 -12.233 61.04 93.6479 -49.0631 94.7194 -0 24.4177 -41.7282 164.299 176.158 -161.135 -0 7.58723 0 -0 42.8284 0 -0 -9.94626 17.0091 -0 0 14.8307 -0 0 53.2517 -0 -10.9139 30.6429 -0 0 41.6975 -0 0 83.4711 -0 1.53946 20.4404 -0 0 42.807 -0 0 69.5475 -0 8.71694 28.4621 -0 0 15.0503 -0 0 54.2889 175.172 141.455 -169.68 11.0001 14.4637 -62.323 89.424 74.7225 -89.4049 -0 4.71074 38.1093 36.2857 11.1543 -19.0951 -0 -9.32397 -0 -0 7.98968 0 -0 7.7041 -26.9417 -0 0 -8.18997 -0 0 -13.0404 -0 5.35158 -23.4283 -0 0 -34.3122 -0 0 -21.9728 -0 -10.699 -22.2162 -0 0 -4.00486 -0 0 -22.3077 -0 -17.4569 -23.2844 -0 0 -5.77942 -0 0 -1.79316 70.3873 -18.9006 -15.4972 99.3847 171.656 -154.566 170.832 -179.086 166.809 0.165162 0 0 70.2565 23.363 7.99735 107.067 176.351 156.478 170.15 -179.595 167.443 0.14883 0 0
 971.427 547.359 524.551 167.012 -18.4367 178.808 0.0359563 -0.0288214 -0.540701 0.252873 -0.0576408 -0.720935 0.866322 -0.172915 -0.901172 2.42562 -0.0288204 -0.720934 174.714 179.983 179.821 164.81 177.27 178.385 175.411 173.846 -179.702 174.488 -145.476 168.064 15.8003 -10.7193 60.055 93.4025 -48.9308 94.3572 -0 24.2351 -41.4793 165.735 -178.123 -160.479 -0 9.79584 0 -0 45.2956 0 -0 -9.5845 15.5658 -0 0 17.0203 -0 0 58.983 -0 -10.8337 25.6158 -0 0 29.0727 -0 0 70.6652 -0 1.42373 19.4727 -0 0 36.1049 -0 0 63.3297 -0 8.38998 33.173 -0 0 15.0977 -0 0 57.1471 175.401 142.451 -170.138 11.6038 13.7727 -60.4715 88.7578 74.5885 -88.6739 -0 3.62307 37.8034 36.3117 11.5438 -18.8325 -0 -10.8139 -0 -0 5.61703 0 -0 6.86346 -21.4599 -0 0 -12.7226 -0 0 -21.4914 -0 5.33144 -18.9053 -0 0 -39.0981 -0 0 -30.5959 -0 -11.658 -25.8633 -0 0 -9.14243 -0 0 -27.4014 -0 -17.7846 -34.0026 -0 0 -8.71088 -0 0 -4.69909 69.6535 -18.9814 -15.7415 99.347 171.729 -154.627 171.199 -178.926 166.765 0.162886 0 0 69.6561 23.1569 7.70568 106.943 176.291 156.56 170.556 -179.46 167.463 0.141903 0 0
 971.086 549.592 527.934 166.589 -18.3236 178.882 0.0447154 -0.0293583 -0.565854 0.314264 -0.0587144 -0.754472 0.928086 -0.176135 -0.943094 2.56754 -0.0293572 -0.754471 174.473 179.982 179.812 164.098 177.203 178.289 175.195 173.684 -179.694 175.255 -146.113 169.722 17.1597 -8.58222 59.169 93.6006 -48.8076 94.5683 -0 23.7248 -41.2679 164.107 179.581 -159.89 -0 17.4234 0 -0 47.85 0 -0 -9.07204 8.85712 -0 0 14.9459 -0 0 57.8066 -0 -10.2764 16.6196 -0 0 15.6419 -0 0 54.685 -0 0.876092 16.3334 -0 0 25.8218 -0 0 52.3136 -0 7.81515 32.0383 -0 0 13.6291 -0 0 57.8815 176.253 144.051 -171.936 13.3578 12.1376 -58.9978 90.0278 74.3941 -89.9189 -0 2.50592 37.9661 36.1635 11.3689 -17.9071 -0 -9.97677 -0 -0 2.75477 0 -0 6.05104 -16.1675 -0 0 -16.0187 -0 0 -28.0333 -0 5.00437 -14.3343 -0 0 -41.769 -0 0 -36.7995 -0 -12.3643 -26.0273 -0 0 -14.4346 -0 0 -32.6695 -0 -17.8226 -40.1744 -0 0 -12.0578 -0 0 -7.92984 68.8846 -19.0327 -16.1546 99.0862 171.862 -154.676 171.857 -178.781 166.723 0.153741 0 0 69.1585 23.0835 7.1916 106.751 176.3 156.648 171.045 -179.271 167.445 0.130211 0 0
